<svg width="600" height="310" xmlns="http://www.w3.org/2000/svg"> <rect width="100%" height="100%" fill="#FEFEFE" />
<line x1="70" y1="278" x2="530" y2="278" stroke="#88A9BF" stroke-width="1" />
<rect x="70" y="109" width="460" height="169" fill="#FEFEFE" />
<text text-anchor="middle" x="300.0" y="20" font-family="'Helvetica Neue', Arial, sans-serif" font-weight="bold" font-size="22" fill="#334B5C">Rainfall in San Francisco</text>
<text text-anchor="middle" x="300.0" y="42" font-family="'Helvetica Neue', Arial, sans-serif" font-size="14" fill="#334B5C">correlates with</text>
<text text-anchor="middle" x="300.0" y="68" font-family="'Helvetica Neue', Arial, sans-serif" font-weight="bold" font-size="22" fill="#5D8AA8">The number of printing press</text>
<text text-anchor="middle" x="300.0" y="90" font-family="'Helvetica Neue', Arial, sans-serif" font-weight="bold" font-size="22" fill="#5D8AA8">operators in Rhode Island</text>
<text x="5" y="198.5" transform="rotate(270 5 193.5)" text-anchor="middle" fill="#334B5C" font-family="'Helvetica Neue', Arial, sans-serif" font-size="14" dominant-baseline="central">In mm</text>
<text x="193.5" y="-389" transform="rotate(90 100 100)" text-anchor="middle" fill="#5D8AA8" font-family="'Helvetica Neue', Arial, sans-serif" font-size="14" dominant-baseline="central">Printing Press Operators</text>
<line x1="71" y1="116.75" x2="528" y2="116.75" stroke="#D8E2E9" stroke-width="1" fill="#FEFEFE" />
<text text-anchor="end" x="62" y="121.41666666666667" font-family="'Helvetica Neue', Arial, sans-serif" font-size="9" fill="#334B5C">34</text>
<text text-anchor="start" x="538" y="121.41666666666667" font-family="'Helvetica Neue', Arial, sans-serif" font-size="9" fill="#5D8AA8">630</text>
<line x1="71" y1="155.125" x2="528" y2="155.125" stroke="#D8E2E9" stroke-width="1" fill="#FEFEFE" />
<text text-anchor="end" x="62" y="159.79166666666666" font-family="'Helvetica Neue', Arial, sans-serif" font-size="9" fill="#334B5C">28</text>
<text text-anchor="start" x="538" y="159.79166666666666" font-family="'Helvetica Neue', Arial, sans-serif" font-size="9" fill="#5D8AA8">575</text>
<line x1="71" y1="193.5" x2="528" y2="193.5" stroke="#D8E2E9" stroke-width="1" fill="#FEFEFE" />
<text text-anchor="end" x="62" y="198.16666666666666" font-family="'Helvetica Neue', Arial, sans-serif" font-size="9" fill="#334B5C">22</text>
<text text-anchor="start" x="538" y="198.16666666666666" font-family="'Helvetica Neue', Arial, sans-serif" font-size="9" fill="#5D8AA8">520</text>
<line x1="71" y1="231.875" x2="528" y2="231.875" stroke="#D8E2E9" stroke-width="1" fill="#FEFEFE" />
<text text-anchor="end" x="62" y="236.54166666666666" font-family="'Helvetica Neue', Arial, sans-serif" font-size="9" fill="#334B5C">15</text>
<text text-anchor="start" x="538" y="236.54166666666666" font-family="'Helvetica Neue', Arial, sans-serif" font-size="9" fill="#5D8AA8">465</text>
<line x1="71" y1="270.25" x2="528" y2="270.25" stroke="#D8E2E9" stroke-width="1" fill="#FEFEFE" />
<text text-anchor="end" x="62" y="274.9166666666667" font-family="'Helvetica Neue', Arial, sans-serif" font-size="9" fill="#334B5C">9</text>
<text text-anchor="start" x="538" y="274.9166666666667" font-family="'Helvetica Neue', Arial, sans-serif" font-size="9" fill="#5D8AA8">410</text>
<polyline points="77.75,278 77.75,284" style="fill:none;stroke:#334B5C;stroke-width:1" />
<polyline points="151.83333333333331,278 151.83333333333331,284" style="fill:none;stroke:#334B5C;stroke-width:1" />
<polyline points="225.91666666666666,278 225.91666666666666,284" style="fill:none;stroke:#334B5C;stroke-width:1" />
<polyline points="300.0,278 300.0,284" style="fill:none;stroke:#334B5C;stroke-width:1" />
<polyline points="374.0833333333333,278 374.0833333333333,284" style="fill:none;stroke:#334B5C;stroke-width:1" />
<polyline points="448.16666666666663,278 448.16666666666663,284" style="fill:none;stroke:#334B5C;stroke-width:1" />
<polyline points="522.25,278 522.25,284" style="fill:none;stroke:#334B5C;stroke-width:1" />
<text text-anchor="middle" x="77.75" y="299" font-weight="bold" font-family="'Helvetica Neue', Arial, sans-serif" font-size="9" fill="#334B5C">2010</text>
<text text-anchor="middle" x="151.83333333333331" y="299" font-weight="bold" font-family="'Helvetica Neue', Arial, sans-serif" font-size="9" fill="#334B5C">2012</text>
<text text-anchor="middle" x="225.91666666666666" y="299" font-weight="bold" font-family="'Helvetica Neue', Arial, sans-serif" font-size="9" fill="#334B5C">2014</text>
<text text-anchor="middle" x="300.0" y="299" font-weight="bold" font-family="'Helvetica Neue', Arial, sans-serif" font-size="9" fill="#334B5C">2016</text>
<text text-anchor="middle" x="374.0833333333333" y="299" font-weight="bold" font-family="'Helvetica Neue', Arial, sans-serif" font-size="9" fill="#334B5C">2018</text>
<text text-anchor="middle" x="448.16666666666663" y="299" font-weight="bold" font-family="'Helvetica Neue', Arial, sans-serif" font-size="9" fill="#334B5C">2020</text>
<text text-anchor="middle" x="522.25" y="299" font-weight="bold" font-family="'Helvetica Neue', Arial, sans-serif" font-size="9" fill="#334B5C">2022</text>
<polyline points="77.75,151.63636363636363 114.79166666666666,214.4318181818182" style="fill:none;stroke:#5D8AA8;stroke-width:2.8"  />
<polyline points="114.79166666666666,214.4318181818182 151.83333333333331,214.4318181818182" style="fill:none;stroke:#5D8AA8;stroke-width:2.8"  />
<polyline points="151.83333333333331,214.4318181818182 188.875,249.3181818181818" style="fill:none;stroke:#5D8AA8;stroke-width:2.8"  />
<polyline points="188.875,249.3181818181818 225.91666666666666,186.52272727272728" style="fill:none;stroke:#5D8AA8;stroke-width:2.8"  />
<polyline points="225.91666666666666,186.52272727272728 262.9583333333333,193.5" style="fill:none;stroke:#5D8AA8;stroke-width:2.8"  />
<polyline points="262.9583333333333,193.5 300.0,116.75" style="fill:none;stroke:#5D8AA8;stroke-width:2.8"  />
<polyline points="300.0,116.75 337.04166666666663,207.45454545454544" style="fill:none;stroke:#5D8AA8;stroke-width:2.8"  />
<polyline points="337.04166666666663,207.45454545454544 374.0833333333333,179.54545454545456" style="fill:none;stroke:#5D8AA8;stroke-width:2.8"  />
<polyline points="374.0833333333333,179.54545454545456 411.125,263.27272727272725" style="fill:none;stroke:#5D8AA8;stroke-width:2.8"  />
<polyline points="411.125,263.27272727272725 448.16666666666663,270.25" style="fill:none;stroke:#5D8AA8;stroke-width:2.8"  />
<polyline points="448.16666666666663,270.25 485.2083333333333,207.45454545454544" style="fill:none;stroke:#5D8AA8;stroke-width:2.8"  />
<polyline points="485.2083333333333,207.45454545454544 522.25,172.5681818181818" style="fill:none;stroke:#5D8AA8;stroke-width:2.8"  />
<circle cx="77.75" cy="151.63636363636363" r="2.75" stroke="#FEFEFE" stroke-width="2.75" fill="#FEFEFE" />
<circle cx="77.75" cy="151.63636363636363" r="2.75" stroke="#5D8AA8" stroke-width="2.75" fill="#5D8AA8"  />
<circle cx="114.79166666666666" cy="214.4318181818182" r="2.75" stroke="#FEFEFE" stroke-width="2.75" fill="#FEFEFE" />
<circle cx="114.79166666666666" cy="214.4318181818182" r="2.75" stroke="#5D8AA8" stroke-width="2.75" fill="#5D8AA8"  />
<circle cx="151.83333333333331" cy="214.4318181818182" r="2.75" stroke="#FEFEFE" stroke-width="2.75" fill="#FEFEFE" />
<circle cx="151.83333333333331" cy="214.4318181818182" r="2.75" stroke="#5D8AA8" stroke-width="2.75" fill="#5D8AA8"  />
<circle cx="188.875" cy="249.3181818181818" r="2.75" stroke="#FEFEFE" stroke-width="2.75" fill="#FEFEFE" />
<circle cx="188.875" cy="249.3181818181818" r="2.75" stroke="#5D8AA8" stroke-width="2.75" fill="#5D8AA8"  />
<circle cx="225.91666666666666" cy="186.52272727272728" r="2.75" stroke="#FEFEFE" stroke-width="2.75" fill="#FEFEFE" />
<circle cx="225.91666666666666" cy="186.52272727272728" r="2.75" stroke="#5D8AA8" stroke-width="2.75" fill="#5D8AA8"  />
<circle cx="262.9583333333333" cy="193.5" r="2.75" stroke="#FEFEFE" stroke-width="2.75" fill="#FEFEFE" />
<circle cx="262.9583333333333" cy="193.5" r="2.75" stroke="#5D8AA8" stroke-width="2.75" fill="#5D8AA8"  />
<circle cx="300.0" cy="116.75" r="2.75" stroke="#FEFEFE" stroke-width="2.75" fill="#FEFEFE" />
<circle cx="300.0" cy="116.75" r="2.75" stroke="#5D8AA8" stroke-width="2.75" fill="#5D8AA8"  />
<circle cx="337.04166666666663" cy="207.45454545454544" r="2.75" stroke="#FEFEFE" stroke-width="2.75" fill="#FEFEFE" />
<circle cx="337.04166666666663" cy="207.45454545454544" r="2.75" stroke="#5D8AA8" stroke-width="2.75" fill="#5D8AA8"  />
<circle cx="374.0833333333333" cy="179.54545454545456" r="2.75" stroke="#FEFEFE" stroke-width="2.75" fill="#FEFEFE" />
<circle cx="374.0833333333333" cy="179.54545454545456" r="2.75" stroke="#5D8AA8" stroke-width="2.75" fill="#5D8AA8"  />
<circle cx="411.125" cy="263.27272727272725" r="2.75" stroke="#FEFEFE" stroke-width="2.75" fill="#FEFEFE" />
<circle cx="411.125" cy="263.27272727272725" r="2.75" stroke="#5D8AA8" stroke-width="2.75" fill="#5D8AA8"  />
<circle cx="448.16666666666663" cy="270.25" r="2.75" stroke="#FEFEFE" stroke-width="2.75" fill="#FEFEFE" />
<circle cx="448.16666666666663" cy="270.25" r="2.75" stroke="#5D8AA8" stroke-width="2.75" fill="#5D8AA8"  />
<circle cx="485.2083333333333" cy="207.45454545454544" r="2.75" stroke="#FEFEFE" stroke-width="2.75" fill="#FEFEFE" />
<circle cx="485.2083333333333" cy="207.45454545454544" r="2.75" stroke="#5D8AA8" stroke-width="2.75" fill="#5D8AA8"  />
<circle cx="522.25" cy="172.5681818181818" r="2.75" stroke="#FEFEFE" stroke-width="2.75" fill="#FEFEFE" />
<circle cx="522.25" cy="172.5681818181818" r="2.75" stroke="#5D8AA8" stroke-width="2.75" fill="#5D8AA8"  />
<polyline points="77.75,149.0689928628073 114.79166666666666,229.59258524980174" style="fill:none;stroke:#334B5C;stroke-width:2.8" stroke-dasharray="3,1"  />
<polyline points="114.79166666666666,229.59258524980174 151.83333333333331,223.6887390959556" style="fill:none;stroke:#334B5C;stroke-width:2.8" stroke-dasharray="3,1"  />
<polyline points="151.83333333333331,223.6887390959556 188.875,248.46054718477401" style="fill:none;stroke:#334B5C;stroke-width:2.8" stroke-dasharray="3,1"  />
<polyline points="188.875,248.46054718477401 225.91666666666666,214.0721649484536" style="fill:none;stroke:#334B5C;stroke-width:2.8" stroke-dasharray="3,1"  />
<polyline points="225.91666666666666,214.0721649484536 262.9583333333333,183.21391752577318" style="fill:none;stroke:#334B5C;stroke-width:2.8" stroke-dasharray="3,1"  />
<polyline points="262.9583333333333,183.21391752577318 300.0,127.94904837430609" style="fill:none;stroke:#334B5C;stroke-width:2.8" stroke-dasharray="3,1"  />
<polyline points="300.0,127.94904837430609 337.04166666666663,218.08921490880255" style="fill:none;stroke:#334B5C;stroke-width:2.8" stroke-dasharray="3,1"  />
<polyline points="337.04166666666663,218.08921490880255 374.0833333333333,168.24127676447264" style="fill:none;stroke:#334B5C;stroke-width:2.8" stroke-dasharray="3,1"  />
<polyline points="374.0833333333333,168.24127676447264 411.125,253.5731562252181" style="fill:none;stroke:#334B5C;stroke-width:2.8" stroke-dasharray="3,1"  />
<polyline points="411.125,253.5731562252181 448.16666666666663,270.25" style="fill:none;stroke:#334B5C;stroke-width:2.8" stroke-dasharray="3,1"  />
<polyline points="448.16666666666663,270.25 485.2083333333333,210.7246233148295" style="fill:none;stroke:#334B5C;stroke-width:2.8" stroke-dasharray="3,1"  />
<polyline points="485.2083333333333,210.7246233148295 522.25,116.75" style="fill:none;stroke:#334B5C;stroke-width:2.8" stroke-dasharray="3,1"  />
<polygon points="74.45,149.0689928628073 77.75,145.7689928628073 81.05,149.0689928628073 77.75,152.36899286280732" stroke="#FEFEFE" stroke-width="2.75" fill="#FEFEFE"  />
<polygon points="74.45,149.0689928628073 77.75,145.7689928628073 81.05,149.0689928628073 77.75,152.36899286280732" stroke="#334B5C" stroke-width="2.75" fill="#334B5C"  />
<polygon points="111.49166666666666,229.59258524980174 114.79166666666666,226.29258524980173 118.09166666666665,229.59258524980174 114.79166666666666,232.89258524980175" stroke="#FEFEFE" stroke-width="2.75" fill="#FEFEFE"  />
<polygon points="111.49166666666666,229.59258524980174 114.79166666666666,226.29258524980173 118.09166666666665,229.59258524980174 114.79166666666666,232.89258524980175" stroke="#334B5C" stroke-width="2.75" fill="#334B5C"  />
<polygon points="148.5333333333333,223.6887390959556 151.83333333333331,220.3887390959556 155.13333333333333,223.6887390959556 151.83333333333331,226.98873909595562" stroke="#FEFEFE" stroke-width="2.75" fill="#FEFEFE"  />
<polygon points="148.5333333333333,223.6887390959556 151.83333333333331,220.3887390959556 155.13333333333333,223.6887390959556 151.83333333333331,226.98873909595562" stroke="#334B5C" stroke-width="2.75" fill="#334B5C"  />
<polygon points="185.575,248.46054718477401 188.875,245.160547184774 192.175,248.46054718477401 188.875,251.76054718477403" stroke="#FEFEFE" stroke-width="2.75" fill="#FEFEFE"  />
<polygon points="185.575,248.46054718477401 188.875,245.160547184774 192.175,248.46054718477401 188.875,251.76054718477403" stroke="#334B5C" stroke-width="2.75" fill="#334B5C"  />
<polygon points="222.61666666666665,214.0721649484536 225.91666666666666,210.7721649484536 229.21666666666667,214.0721649484536 225.91666666666666,217.37216494845362" stroke="#FEFEFE" stroke-width="2.75" fill="#FEFEFE"  />
<polygon points="222.61666666666665,214.0721649484536 225.91666666666666,210.7721649484536 229.21666666666667,214.0721649484536 225.91666666666666,217.37216494845362" stroke="#334B5C" stroke-width="2.75" fill="#334B5C"  />
<polygon points="259.6583333333333,183.21391752577318 262.9583333333333,179.91391752577317 266.2583333333333,183.21391752577318 262.9583333333333,186.5139175257732" stroke="#FEFEFE" stroke-width="2.75" fill="#FEFEFE"  />
<polygon points="259.6583333333333,183.21391752577318 262.9583333333333,179.91391752577317 266.2583333333333,183.21391752577318 262.9583333333333,186.5139175257732" stroke="#334B5C" stroke-width="2.75" fill="#334B5C"  />
<polygon points="296.7,127.94904837430609 300.0,124.64904837430609 303.3,127.94904837430609 300.0,131.24904837430608" stroke="#FEFEFE" stroke-width="2.75" fill="#FEFEFE"  />
<polygon points="296.7,127.94904837430609 300.0,124.64904837430609 303.3,127.94904837430609 300.0,131.24904837430608" stroke="#334B5C" stroke-width="2.75" fill="#334B5C"  />
<polygon points="333.7416666666666,218.08921490880255 337.04166666666663,214.78921490880253 340.34166666666664,218.08921490880255 337.04166666666663,221.38921490880256" stroke="#FEFEFE" stroke-width="2.75" fill="#FEFEFE"  />
<polygon points="333.7416666666666,218.08921490880255 337.04166666666663,214.78921490880253 340.34166666666664,218.08921490880255 337.04166666666663,221.38921490880256" stroke="#334B5C" stroke-width="2.75" fill="#334B5C"  />
<polygon points="370.7833333333333,168.24127676447264 374.0833333333333,164.94127676447263 377.3833333333333,168.24127676447264 374.0833333333333,171.54127676447266" stroke="#FEFEFE" stroke-width="2.75" fill="#FEFEFE"  />
<polygon points="370.7833333333333,168.24127676447264 374.0833333333333,164.94127676447263 377.3833333333333,168.24127676447264 374.0833333333333,171.54127676447266" stroke="#334B5C" stroke-width="2.75" fill="#334B5C"  />
<polygon points="407.825,253.5731562252181 411.125,250.2731562252181 414.425,253.5731562252181 411.125,256.8731562252181" stroke="#FEFEFE" stroke-width="2.75" fill="#FEFEFE"  />
<polygon points="407.825,253.5731562252181 411.125,250.2731562252181 414.425,253.5731562252181 411.125,256.8731562252181" stroke="#334B5C" stroke-width="2.75" fill="#334B5C"  />
<polygon points="444.8666666666666,270.25 448.16666666666663,266.95 451.46666666666664,270.25 448.16666666666663,273.55" stroke="#FEFEFE" stroke-width="2.75" fill="#FEFEFE"  />
<polygon points="444.8666666666666,270.25 448.16666666666663,266.95 451.46666666666664,270.25 448.16666666666663,273.55" stroke="#334B5C" stroke-width="2.75" fill="#334B5C"  />
<polygon points="481.9083333333333,210.7246233148295 485.2083333333333,207.4246233148295 488.5083333333333,210.7246233148295 485.2083333333333,214.0246233148295" stroke="#FEFEFE" stroke-width="2.75" fill="#FEFEFE"  />
<polygon points="481.9083333333333,210.7246233148295 485.2083333333333,207.4246233148295 488.5083333333333,210.7246233148295 485.2083333333333,214.0246233148295" stroke="#334B5C" stroke-width="2.75" fill="#334B5C"  />
<polygon points="518.95,116.75 522.25,113.45 525.55,116.75 522.25,120.05" stroke="#FEFEFE" stroke-width="2.75" fill="#FEFEFE"  />
<polygon points="518.95,116.75 522.25,113.45 525.55,116.75 522.25,120.05" stroke="#334B5C" stroke-width="2.75" fill="#334B5C"  />
</svg>
